<?xml version="1.0" standalone="no"?>
<!DOCTYPE svg PUBLIC "-//W3C//DTD SVG 20010904//EN"
 "http://www.w3.org/TR/2001/REC-SVG-20010904/DTD/svg10.dtd">
<svg version="1.0" xmlns="http://www.w3.org/2000/svg"
 width="509.000000pt" height="509.000000pt" viewBox="0 0 509.000000 509.000000"
 preserveAspectRatio="xMidYMid meet">
<metadata>
Created by potrace 1.14, written by Peter Selinger 2001-2017
</metadata>
<g transform="translate(0.000000,509.000000) scale(0.100000,-0.100000)"
fill="#000000" stroke="none">
<path d="M772 2705 l0 -705 234 0 234 0 0 215 c0 244 -3 237 78 154 26 -27 52
-49 57 -49 6 0 38 26 71 58 34 31 90 84 125 116 35 33 122 114 193 180 72 67
164 153 205 191 42 39 105 98 141 132 128 120 154 143 161 143 3 0 7 -220 7
-490 l1 -490 -27 -1 c-15 -1 -49 -2 -77 -2 l-50 -1 -3 317 c-1 174 -5 317 -8
317 -3 0 -15 -10 -28 -22 -20 -21 -108 -103 -355 -333 -41 -38 -112 -105 -158
-149 l-82 -78 52 -49 c28 -27 56 -49 60 -49 4 0 25 16 45 36 20 20 81 77 136
128 54 50 114 106 133 124 19 18 37 31 41 28 4 -2 7 -99 7 -215 l-1 -211 233
0 233 0 0 697 c0 383 4 693 8 688 5 -6 16 -35 25 -65 8 -30 43 -143 77 -250
52 -164 91 -289 104 -335 2 -5 5 -17 8 -25 4 -8 23 -69 43 -135 20 -66 40
-131 45 -145 5 -14 27 -86 50 -160 23 -74 45 -146 50 -160 5 -14 14 -44 20
-67 l11 -43 48 0 49 0 93 122 c52 68 148 193 214 279 66 85 129 168 140 183
11 15 27 36 35 46 8 10 33 42 55 71 22 28 52 66 66 82 l26 31 88 -117 c48 -64
91 -117 96 -117 4 0 11 10 14 23 7 23 53 173 136 442 70 224 60 210 147 210
59 1 72 -2 72 -15 0 -8 -17 -69 -38 -135 -22 -66 -51 -160 -66 -210 -15 -49
-49 -160 -76 -245 -27 -85 -65 -206 -84 -268 -19 -62 -38 -117 -41 -123 -4 -5
-20 7 -36 28 -16 21 -32 43 -37 48 -4 6 -21 28 -37 50 -17 22 -35 46 -42 55
-7 8 -31 39 -53 68 -23 28 -45 52 -49 52 -8 0 -79 -94 -87 -115 -3 -8 2 -22
11 -31 9 -10 35 -42 58 -73 23 -31 44 -58 48 -61 6 -6 67 -87 89 -120 8 -12
25 -34 38 -48 13 -15 37 -46 54 -69 29 -40 35 -43 79 -43 45 0 48 2 58 33 5
17 44 142 86 277 199 641 212 682 232 740 8 25 19 59 23 75 11 41 76 246 85
267 7 17 -8 18 -232 16 l-239 -1 -10 -31 c-65 -197 -159 -466 -163 -466 -3 1
-34 37 -68 81 l-62 79 -92 -122 c-51 -68 -120 -158 -153 -201 -100 -129 -180
-233 -201 -263 -11 -15 -24 -32 -30 -38 -5 -6 -39 -50 -75 -98 -36 -48 -70
-87 -75 -88 -6 0 -59 154 -117 343 -59 188 -127 409 -153 491 -36 115 -44 151
-34 160 9 8 10 7 4 -4 -7 -12 -6 -13 6 -4 13 10 124 13 132 4 4 -4 70 -206 72
-220 0 -3 8 -27 17 -55 29 -87 96 -308 108 -352 6 -24 15 -43 20 -43 5 0 35
35 67 78 32 42 60 79 63 82 3 3 28 34 55 70 38 50 172 227 287 376 5 7 -10 34
-41 73 l-50 62 -68 -88 c-37 -49 -108 -141 -157 -206 -49 -64 -92 -117 -96
-117 -3 0 -14 26 -24 58 -9 32 -37 121 -62 197 -24 76 -44 147 -44 156 0 10
-4 20 -9 23 -4 3 -11 19 -14 36 l-7 30 -297 0 -298 -1 -77 -72 c-42 -40 -128
-119 -190 -177 -143 -133 -145 -135 -274 -257 -60 -56 -122 -114 -139 -129
-16 -15 -81 -75 -143 -133 -62 -58 -117 -106 -122 -106 -11 0 -80 59 -190 164
-52 50 -97 91 -100 91 -3 0 -5 -142 -4 -315 1 -356 10 -318 -81 -317 -90 1
-80 -54 -78 434 1 238 2 461 2 496 l1 64 29 -29 c15 -15 77 -73 136 -128 60
-55 144 -134 188 -175 43 -41 82 -76 86 -78 4 -1 32 20 62 48 l54 50 -75 72
c-42 40 -132 125 -199 188 -68 63 -141 131 -161 150 -170 162 -168 160 -225
160 l-53 0 0 -705z"/>
</g>
</svg>
